<?xml version="1.0" encoding="utf-8"?>
<!-- Generator: Adobe Illustrator 16.0.0, SVG Export Plug-In . SVG Version: 6.00 Build 0)  -->
<!DOCTYPE svg PUBLIC "-//W3C//DTD SVG 1.1//EN" "http://www.w3.org/Graphics/SVG/1.1/DTD/svg11.dtd">
<svg version="1.1" id="Layer_1" xmlns="http://www.w3.org/2000/svg" xmlns:xlink="http://www.w3.org/1999/xlink" x="0px" y="0px"
	 width="1600px" height="1000px" viewBox="0 0 1600 1000" enable-background="new 0 0 1600 1000" xml:space="preserve">
<rect y="-31.998" display="none" fill-rule="evenodd" clip-rule="evenodd" fill="#0000FF" width="1600" height="1600"/>
<g>
	<path fill-rule="evenodd" clip-rule="evenodd" fill="#FF6F43" d="M1484.375,255.007c-6.065-6.592-7.409-12.056-4.104-20.557
		c6.495-16.713,11.748-33.874,14.857-51.687c6.97-39.956-8.733-71.85-35.842-98.933c-13.111-13.1-24.699-10.056-31.805,5.631
		c-9.682,21.383-9.851,21.428-30.332,8.862c-16.176-9.925-23.485-7.105-27.144,10.483c-6.021,28.95-6.097,29.09-32.348,14.184
		c-5.864-3.332-11.081-6.914-17.387-1.495c-21.226,18.235-14.774,73.597,9.828,87.157c15.653,8.631,33.177,6,51.423,9.329
		c-19.205,39.659-50.854,78.868,2.095,120.678c-14.16-0.53-20.29-4.704-26.222-9.678c-25.789-21.622-25.42-48.575-15.109-77.008
		c4.094-11.296,4.793-17.036-10.323-18.64c-14.372-1.528-26.73-10.721-34.033-23.256c-5.805-9.959-14.389-12.905-23.745-13.792
		c-49.165-4.672-98.375-9.308-147.859-7.975c-29.739,0.799-56.735,7.285-75.477,33.956c-9.223,13.119-22.447,23.122-35.941,31.83
		c-10.98,7.082-22.732,15.613-38.197,5.079c16.612-8.106,30.347-18.334,41.972-31.42c27.366-30.833,26.995-73.507-2.922-101.258
		c-17.568-16.293-30.58-34.362-36.154-57.712c-1.037-4.333-2.457-8.815-4.783-12.552c-4.351-6.97-8.605-15.749-18.6-14.19
		c-8.852,1.383-11.082,9.716-12.968,17.398c-0.61,2.488-1.684,4.88-2.16,7.384c-3.04,15.98-10.517,15.805-20.887,5.926
		c-6.354-6.052-11.795-15.423-22.447-11.286c-10.181,3.958-6.444,14.129-7.368,22.04c-0.687,5.847-1.593,12.055-7.422,14.756
		c-7.006,3.252-12.203-1.241-16.912-5.939c-1.82-1.82-3.525-3.838-5.619-5.28c-4.625-3.206-9.113-8.156-15.446-5.179
		c-6.504,3.059-7.984,9.172-8.639,16.042c-2.327,24.29-6.149,26.342-28.346,13.009c-13.898-8.347-20.406-2.244-24.438,10.071
		c-6.194,18.921,1.454,37.609,19.394,47.728c17.555,9.897,37.122,14.092,56.459,18.764c8.229,1.994,16.311,3.682,16.793,15.803
		c-64.232,0.389-127.793-1.929-190.946,7.634c-58.042,8.787-114.638,21.708-166.305,50.817c-8.979,5.059-17.163,5.991-27.253,3.561
		c-44.306-10.69-89.676-14.871-134.893-18.872c-67.921-6.009-136.136-5.654-204.239-4c-28.142,0.688-56.375,4.316-82.012,17.876
		c-13.786,7.293-24.937,16.788-21.93,34.595c2.676,15.862,14.882,21.142,28.681,24.399c14.607,3.447,28.299,7.98,35.956,22.978
		c4.281,8.391,12.281,9.661,19.565,3.829c11.82-9.456,19.525-7.611,23.297,7.105c3.777,14.733,13.43,15.4,23.125,7.953
		c12.572-9.647,17.503-4.299,21.865,7.479c4.468,12.048,12.286,16.693,23.608,7.869c11.26-8.773,17.821-7.288,21.392,7.214
		c3.609,14.673,13.493,17.007,24.485,8.322c12.191-9.636,23.713-6.609,36.157-1.968c15.285,5.708,27.256,16.849,41.346,24.468
		c9.125-14.798-1.848-22.804-11.241-30.097c-20.693-16.07-45.572-23.282-70.157-30.808c-33.792-10.355-67.78-20.048-101.388-30.952
		c-12.73-4.126-24.911-10.293-36.805-16.548c-7.008-3.677-12.936-10.025-9.278-18.877c3.913-9.482,12.475-9.731,21.337-7.989
		c9.174,1.803,17.299,5.774,22.896,13.191c8.293,10.998,17.04,12.72,27.265,3.079c13.274-12.508,23.374-11.502,30.008,6.562
		c5.454,14.868,15.288,16.652,26.812,7.248c15.283-12.458,24.484-9.638,30.534,9.117c4.391,13.618,14.238,14.014,23.973,5.778
		c15.133-12.812,25.797-11.977,32.616,7.989c4.958,14.506,16.052,13.598,26.652,8.361c17.687-8.736,31.854-3.994,45.795,8.032
		c11.7,10.088,24.156,19.396,33.344,31.941c23.771,32.465,56.226,40.634,93.922,34.062c12.085-2.106,24.099-3.851,36.392-3.367
		c9.657,0.386,17.347,4.146,22.702,12.354c3.25,4.993,6.698,11.252,4.085,16.144c-3.087,5.788-9.239,0.46-13.892-0.331
		c-16.396-2.778-31.854,0.069-47.182,5.925c-20.739,7.921-42.403,13.305-64.125,6.367c-34.855-11.145-69.542-17.186-105.421-5.78
		c-10.604,1.213-18.143-5.483-26.261-10.407c-18.97-11.497-20.482-11.066-28.357,9.723c-6.973,18.404-11.588,20.579-27.966,10.48
		c-13.3-8.196-21.773-8.267-27.508,8.601c-6.816,20.036-10.251,20.888-28.966,10.324c-12.264-6.921-22.395-7.776-26.784,8.212
		c-5.309,19.334-15.655,21.209-31.217,10.948c-12.883-8.495-21.03-5.318-25.074,10.27c-4.159,16.047-13.126,21.207-28.216,10.185
		c-7.977-5.829-20.369-11.267-24.812,0.565c-6.965,18.57-21.212,31.808-29.7,48.669c-11.12,22.078-0.23,37.629,24.709,37.684
		c10.249,0.021,20.306-0.707,30.549-2.983c64.396-14.326,129.003-27.696,193.405-41.967c10.709-2.369,17.815-1.35,24.578,8.286
		c10.608,15.125,24.968,20.463,43.866,14.625c16.526-5.103,33.588-6.308,51.089-1.491c43.688,12.024,82.584,2.183,115.952-28.508
		c5.332-4.907,10.17-5.479,17.339-4.099c23.86,4.593,47.483,2.875,69.358-8.645c8.917-4.698,16.271-4.124,25.299-0.041
		c63.777,28.848,130.996,44.739,200.667,48.832c97.635,5.742,192.869-11.187,287.558-32.814
		c35.501-8.107,69.979-21.971,107.263-20.962c16.028,0.433,32.316,3.048,37.752,20.511c5.16,16.59-3.828,28.966-17.104,39.463
		c-49.968,39.526-108.672,60.611-168.296,78.808c-99.893,30.487-203.076,50.369-298.014,96.557
		c-49.318,23.998-98.812,47.134-135.701,89.49c-19.334,22.209-34.146,46.721-33.098,77.814c0.175,5.342,0.455,10.809,6.075,13.09
		c6.864,2.775,10.238-2.096,13.91-7.053c6.867-9.279,13.993-18.432,21.762-26.955c6.586-7.225,16.684-16.141,24.886-9.543
		c19.958,16.041,31.531,4.463,43.176-9.451c8.448-10.094,16.666-13.053,26.921-2.898c10.252,10.141,19.657,6.289,28.527-2.156
		c6.523-6.205,12.458-13.111,19.422-18.754c5.354-4.324,13.317-10.457,19.009-4.723c17.319,17.443,28.517,7.047,41.978-5.352
		c8.099-7.469,18.297-19.797,31.472-7.596c13.479,12.48,24.378,6.998,35.395-2.803c5.289-4.699,9.752-10.51,15.525-14.426
		c11.348-7.705,22.944-13.584,31.258,4.49c5.17,11.25,14.345,9.855,22.649,4.393c9.619-6.32,17.99-14.537,27.65-20.787
		c9.697-6.27,21.375-13.797,29.136,1.754c7.713,15.461,17.425,12.533,28.18,5.328c11.195-7.498,21.73-15.98,32.883-23.553
		c6.071-4.115,12.866-7.285,17.834,1.92c9.662,17.896,22.072,14.322,34.845,4.141c7.013-5.588,13.396-11.971,19.994-18.068
		c6.58-6.08,14.064-7.986,20.432-1.025c12.547,13.711,22.88,6.562,33.056-2.518c6.715-5.984,12.894-12.582,19.128-19.086
		c6.159-6.43,14.486-8.551,21.076-4.057c17.811,12.137,26.833,1.042,36.021-11.514c6.063-8.276,11.991-16.666,18.321-24.733
		c4.133-5.28,10.544-10.697,16.482-6.708c17.909,12.033,25.619-0.536,33.377-12.55c6.601-10.216,12.294-21.04,17.926-31.839
		c5.504-10.545,9.865-21.019,25.785-15.209c6.957,2.54,13.145-2.873,17.55-9.196c16.914-24.283,33.181-49.027,44.748-76.32
		c24.157-57,34.393-116.06,27.87-178.245C1537.756,347.056,1522.591,296.502,1484.375,255.007z M379.679,549.521
		c-1.112,7.848-6.849,14.425-14.83,14.84c-6.766,0.344-15.206-3.599-14.171-11.828c1.206-9.609,11.504-7.348,16.822-9.5
		C373.634,543.652,380.818,541.513,379.679,549.521z M453.033,554.048c-12.943,0.078-23.876-5.926-28.491-18.651
		c-1.824-5.042,18.102-11.537,35.95-11.589c7.278-0.173,16.203-0.327,15.716,9.315C475.538,546.525,466.089,553.978,453.033,554.048
		z M1179.728,354.753c2.204-13,7.104-14.826,17.667-9.375c7.77,4.01,15.685,7.744,25.251,12.448
		c-7.897,10.097-17.19,11.205-25.424,13.762C1175.377,378.366,1175.808,377.827,1179.728,354.753z M1034.757,381.097
		c1.093-4.527,6.054-3.583,9.756-1.758c10.102,4.976,20.172,10.016,32.506,16.152c-12.148,9.866-24.485,11.195-35.521,15.232
		c-3.983,1.457-9.54,2.437-11.229-3.534C1027.671,397.996,1032.7,389.652,1034.757,381.097z M960.556,392.667
		c-0.104-6.852,4.454-8.689,10.531-5.728c10.124,4.94,20.187,10.021,31.921,15.859c-7.978,8.284-15.199,9.698-21.818,11.322
		c-7.54,1.851-16.23,10.022-22.978,2.338C952.206,409.608,960.675,400.928,960.556,392.667z M743.042,502.221
		c-6.856,1.852-15.931,8.012-20.811,1.698c-5.728-7.415,1.412-16.955,3.308-25.382c1.518-6.759,7.732-5.466,12.53-3.297
		c9.139,4.128,18.06,8.734,28.789,13.979C759.271,498.702,750.803,500.125,743.042,502.221z M807.178,526.071
		c-21.82,6.794-21.344,6.275-17.541-16.784c2.152-13.035,6.987-14.974,17.591-9.457c5.632,2.93,11.418,5.559,17.053,8.48
		c2.172,1.128,4.124,2.681,7.566,4.961C824.733,522.461,815.409,523.503,807.178,526.071z M814.13,464.709
		c-4.053,1.483-9.579,2.605-11.554-2.856c-3.272-9.054,2.254-17.387,3.996-25.958c1.065-5.255,5.96-3.156,9.353-1.344
		c9.873,5.289,21.896,6.457,31.335,16.583C836.406,459.292,824.776,460.825,814.13,464.709z M879.615,536.64
		c-7.062,2.299-15.825,7.303-21.314,2.938c-6.852-5.444,1.688-13.868,1.649-21.285c-0.057-9.961,6.04-11.96,14.035-8.096
		c8.972,4.342,18.907,7.166,27.053,15.359C894.418,533.001,886.757,534.315,879.615,536.64z M884.972,477.334
		c-4.144,0.873-10.466,6.369-13.018-1.238c-2.969-8.863,0.86-17.662,4.312-25.787c2.15-5.065,7.573-4.396,11.646-2.293
		c9.422,4.864,20.212,7.469,28.234,16.007C907.34,473.116,895.941,475.033,884.972,477.334z M926.297,401.764
		c-0.816,9.983-17.188,10.925-27.504,13.144c-4.643,0.996-14.14,9.164-15.441-3.24c1.693-7.529,2.86-13.804,4.542-19.94
		c1.904-6.963,5.257-12.236,13.433-6.891C910.09,390.572,927.128,391.61,926.297,401.764z M951.411,538.218
		c-6.505,1.325-14.119,7.81-19.776,2.382c-6.411-6.149,0.035-14.313,0.935-21.642c1.186-9.735,5.271-12.168,14.051-7.434
		c8.933,4.821,18.15,9.101,31.519,15.744C966.387,532.256,959.186,536.631,951.411,538.218z M964.777,477.446
		c-6.434,2.377-14.162,7.027-19.908,2.344c-6.165-5.021,0.169-12.868,0.594-19.406c0.748-11.725,6.777-15.14,17.722-8.529
		c8.069,4.875,16.881,8.521,26.969,13.51C982.164,473.778,972.901,474.449,964.777,477.446z M1008.248,535.526
		c-7.048-0.483-9.214-3.177-5.126-13.109c2.219-4.335-1.801-19.604,9.77-18.631c10.676,0.899,23.844,6.011,30.288,17.075
		C1045.696,525.179,1019.175,536.264,1008.248,535.526z M1026.527,473.472c-6.677,0.027-14.035-0.314-10.917-7.324
		c3.798-8.533-2.673-25.293,10.989-24.682c11.15,0.498,31.014,7.17,30.44,17.408C1056.402,470.322,1036.397,468.73,1026.527,473.472
		z M1097.6,519.501c-6.27,1.935-14.175,8.257-19.431,1.682c-6.112-7.63-0.811-16.978,1.54-25.449
		c1.266-4.582,3.942-6.582,8.345-4.196c10.476,5.669,23.099,7.118,33.192,16.988C1113.796,515.903,1105.316,517.112,1097.6,519.501z
		 M1130.81,442.544c-2.055,13.83-21.778,10.362-31.98,15.611c-6.291-0.222-11.326-0.597-8.952-7.434
		c3.069-8.818-0.002-24.567,11.543-24.312C1111.936,426.643,1132.024,434.393,1130.81,442.544z M1126.249,392.092
		c-7.077,0.991-15.046,8.716-21.243,1.357c-5.529-6.569,1.637-14.368,2.367-21.739c0.995-10.08,7.155-10.317,14.905-6.087
		c8.306,4.536,16.837,8.641,27.163,13.9C1141.901,387.902,1134.222,390.981,1126.249,392.092z M1153.209,507.906
		c-6.97-0.507-6.801-4.312-4.973-9.263c3.124-8.655-1.626-24.27,12.759-23.239c10.401,0.747,22.453,6.324,29.396,16.376
		C1192.416,494.715,1161.025,508.471,1153.209,507.906z M1204.029,423.698c-2.284,12.646-21.365,12.083-34.002,14.788
		c-7.123,1.525-8.842-3.203-4.497-13.52c1.899-3.713-1.985-19.011,9.633-17.857C1185.793,408.161,1205.651,414.739,1204.029,423.698
		z M1261.883,471.172c-3.508,13.157-22.952,11.932-36.036,15.771c-5.207,1.525-7.8-2.408-5.743-6.257
		c4.544-8.542-1.353-22.536,13.012-26.901C1243.102,461.047,1264.049,463.063,1261.883,471.172z M1255.772,417.65
		c-6.26,1.881-14.217,7.181-19.482,1.966c-5.615-5.552,1.519-13.047,2.177-19.832c0.963-9.907,6.595-13.629,15.906-8.421
		c8.177,4.58,18.025,6.427,24.618,14.305C1273.463,414.469,1263.921,415.19,1255.772,417.65z M1269.6,731.967
		c-1.844,13.84-20.889,11.872-33.044,15.545c-4.164,1.262-9.403,0.351-7.931-7.221c3.807-8.145,0.253-24.22,11.422-24.241
		C1250.555,716.025,1270.65,724.084,1269.6,731.967z M1417.339,476.518c10.526-0.306,30.845,8.543,29.792,15.929
		c-2.217,15.577-22.179,12.02-29.828,15.482c-10.847,3.74-14.581,0.173-12.28-4.732
		C1409.328,493.994,1404.231,476.898,1417.339,476.518z M1376.321,421.916c4.474-6.336,11.776-0.372,17.11,2.369
		c7.112,3.662,15.433,5.66,21.4,12.919c-11.145,9.729-24.517,11.389-37.229,14.684c-3.316,0.856-6.85,1.287-7.484-2.94
		C1368.652,439.222,1371.058,429.368,1376.321,421.916z M1378.2,573.014c-10.623,3.966-21.553,7.132-32.43,10.371
		c-1.515,0.454-4.641,0.017-4.984-0.833c-3.338-8.235,2.528-15.625,2.7-23.719c0.097-4.441,3.66-8.024,10.547-7.367
		c8.067,3.62,17.656,7.118,26.398,12.106C1387.137,567.401,1382.21,571.519,1378.2,573.014z M1355.451,496.243
		c6.986,4.031,19.805,5.202,19.406,13.062c-0.503,9.74-13.643,9.277-21.625,12.494c-4.698,1.901-9.911,2.519-14.896,3.705
		c-2.76,1.046-6.28,0.221-6.032-2.304c0.932-9.484,1.461-19.576,7.389-27.379C1344.041,490.093,1350.462,493.365,1355.451,496.243z
		 M1307.55,407.581c2.604-5.523-3.244-21.73,11.592-19.684c10.021,1.386,29.587,5.447,27.958,15.119
		c-2.188,12.917-20.986,13.198-33.699,16.095C1306.875,420.599,1303.628,417.091,1307.55,407.581z M1297.494,453.921
		c4.253-7.426,11.393-2.443,17.08-0.139c7.55,3.063,14.924,6.588,24.771,10.989c-9.727,8.476-17.845,11.701-26.802,13.049
		c-6.491,0.972-14.414,7.885-19.071-0.186C1289.108,470.072,1293.524,460.863,1297.494,453.921z M1335.204,702.697
		c-2.678,11.189-21.836,12.562-35.147,13.942c-7.581,0.787-7.892-4.666-5.731-11.254c4.147-6.373-0.826-22.377,12.508-19.971
		C1317.484,687.338,1337.505,693.114,1335.204,702.697z M1350.454,621.696c-1.835,10.585-21.585,12.223-34.751,13.838
		c-7.288,0.895-8.361-4.082-6.119-11.174c5.753-5.339-3.441-22.77,11.172-20.646C1331.955,605.34,1352.196,611.657,1350.454,621.696
		z M1393.14,663.374c-1.398,11.833-20.527,11.073-32.379,14.545c-5.31,1.555-10.399-0.266-9.522-8.601
		c5.627-6.753-0.738-23.958,12.888-22.762C1374.732,647.489,1394.274,653.779,1393.14,663.374z M1420.054,623.054
		c-6.871,2.011-14.959,9.043-21.421,2.257c-6.012-6.326,0.513-14.464,1.331-21.841c1.196-10.763,6.492-10.822,14.434-6.624
		c8.928,4.721,18.054,9.068,28.567,14.307C1435.257,620.074,1427.147,620.983,1420.054,623.054z M1422.816,568.339
		c-9.826,2.591-12.401-2.266-9.608-9.809c2.761-7.447-0.108-20.253,9.118-21.515c13.608-1.869,23.934,8.942,38.395,16.431
		C1445.941,561.838,1434.495,565.257,1422.816,568.339z"/>
	<path fill-rule="evenodd" clip-rule="evenodd" fill="#23F8BD" d="M570.793,411.262c-12.293-0.484-24.306,1.26-36.392,3.367
		c-37.696,6.571-70.151-1.597-93.922-34.062c-9.188-12.544-21.644-21.853-33.344-31.941c-13.942-12.026-28.108-16.769-45.795-8.032
		c-10.601,5.237-21.695,6.145-26.652-8.361c-6.819-19.966-17.483-20.801-32.616-7.989c-9.734,8.236-19.582,7.84-23.973-5.778
		c-6.05-18.755-15.251-21.575-30.534-9.117c-11.524,9.404-21.358,7.62-26.812-7.248c-6.634-18.064-16.733-19.07-30.008-6.562
		c-10.226,9.641-18.972,7.919-27.265-3.079c-5.597-7.417-13.722-11.389-22.896-13.191c-8.862-1.742-17.424-1.493-21.337,7.989
		c-3.658,8.852,2.27,15.2,9.278,18.877c11.894,6.255,24.075,12.422,36.805,16.548c33.608,10.904,67.597,20.597,101.388,30.952
		c24.584,7.526,49.463,14.737,70.157,30.808c9.393,7.292,20.366,15.298,11.241,30.097c8.251,9.284,18.676,17.266,18.846,31.4
		c35.879-11.406,70.566-5.365,105.421,5.78c21.722,6.938,43.386,1.555,64.125-6.367c15.328-5.856,30.786-8.704,47.182-5.925
		c4.652,0.791,10.804,6.119,13.892,0.331c2.613-4.892-0.835-11.151-4.085-16.144C588.14,415.408,580.45,411.648,570.793,411.262z"/>
	<path fill-rule="evenodd" clip-rule="evenodd" fill="#FEFEFE" d="M460.498,523.803c-17.854,0.057-37.78,6.552-35.956,11.594
		c4.615,12.725,15.548,18.729,28.491,18.651c13.056-0.07,22.505-7.523,23.175-20.925C476.694,523.48,467.77,523.635,460.498,523.803
		z"/>
	<path fill-rule="evenodd" clip-rule="evenodd" fill="#FEFEFE" d="M901.326,384.836c-8.176-5.345-11.528-0.072-13.433,6.891
		c-1.682,6.136-2.849,12.411-4.542,19.94c1.302,12.404,10.799,4.236,15.441,3.24c10.316-2.219,26.688-3.16,27.504-13.144
		C927.128,391.61,910.09,390.572,901.326,384.836z"/>
	<path fill-rule="evenodd" clip-rule="evenodd" fill="#FEFEFE" d="M1417.339,476.518c-13.107,0.38-8.011,17.476-12.316,26.679
		c-2.301,4.905,1.434,8.472,12.28,4.732c7.649-3.462,27.611,0.095,29.828-15.482
		C1448.184,485.062,1427.865,476.212,1417.339,476.518z"/>
	<path fill-rule="evenodd" clip-rule="evenodd" fill="#FEFEFE" d="M1320.756,603.714c-14.613-2.125-5.419,15.307-11.172,20.646
		c-2.242,7.093-1.169,12.069,6.119,11.174c13.166-1.616,32.916-3.253,34.751-13.838
		C1352.196,611.657,1331.955,605.34,1320.756,603.714z"/>
	<path fill-rule="evenodd" clip-rule="evenodd" fill="#FEFEFE" d="M1399.964,603.47c-0.818,7.377-7.343,15.515-1.331,21.841
		c6.462,6.787,14.55-0.246,21.421-2.257c7.094-2.071,15.203-2.98,22.911-11.902c-10.514-5.238-19.64-9.586-28.567-14.307
		C1406.456,592.648,1401.16,592.707,1399.964,603.47z"/>
	<path fill-rule="evenodd" clip-rule="evenodd" fill="#FEFEFE" d="M1422.326,537.015c-9.227,1.262-6.357,14.068-9.118,21.515
		c-2.793,7.543-0.218,12.4,9.608,9.809c11.679-3.082,23.125-6.501,37.904-14.893C1446.26,545.958,1435.935,535.146,1422.326,537.015
		z"/>
	<path fill-rule="evenodd" clip-rule="evenodd" fill="#FEFEFE" d="M1034.757,381.097c-2.057,8.555-7.086,16.899-4.489,26.092
		c1.689,5.971,7.246,4.991,11.229,3.534c11.036-4.037,23.373-5.366,35.521-15.232c-12.334-6.137-22.404-11.176-32.506-16.152
		C1040.811,377.514,1035.85,376.57,1034.757,381.097z"/>
	<path fill-rule="evenodd" clip-rule="evenodd" fill="#FEFEFE" d="M1026.6,441.466c-13.662-0.612-7.191,16.148-10.989,24.682
		c-3.118,7.01,4.24,7.352,10.917,7.324c9.87-4.742,29.875-3.15,30.513-14.598C1057.613,448.636,1037.75,441.964,1026.6,441.466z"/>
	<path fill-rule="evenodd" clip-rule="evenodd" fill="#FEFEFE" d="M876.266,450.31c-3.451,8.125-7.28,16.924-4.312,25.787
		c2.552,7.606,8.874,2.111,13.018,1.238c10.97-2.301,22.368-4.219,31.175-13.311c-8.022-8.538-18.812-11.143-28.234-16.007
		C883.839,445.913,878.416,445.245,876.266,450.31z"/>
	<path fill-rule="evenodd" clip-rule="evenodd" fill="#FEFEFE" d="M945.463,460.384c-0.425,6.538-6.759,14.385-0.594,19.406
		c5.746,4.683,13.475,0.034,19.908-2.344c8.124-2.998,17.387-3.668,25.376-12.081c-10.088-4.989-18.899-8.634-26.969-13.51
		C952.24,445.245,946.211,448.66,945.463,460.384z"/>
	<path fill-rule="evenodd" clip-rule="evenodd" fill="#FEFEFE" d="M1319.142,387.897c-14.836-2.046-8.988,14.161-11.592,19.684
		c-3.922,9.51-0.675,13.018,5.851,11.53c12.713-2.897,31.512-3.178,33.699-16.095
		C1348.729,393.344,1329.162,389.283,1319.142,387.897z"/>
	<path fill-rule="evenodd" clip-rule="evenodd" fill="#FEFEFE" d="M960.556,392.667c0.119,8.261-8.35,16.942-2.344,23.792
		c6.747,7.684,15.438-0.487,22.978-2.338c6.619-1.625,13.841-3.038,21.818-11.322c-11.734-5.839-21.797-10.919-31.921-15.859
		C965.01,383.978,960.452,385.815,960.556,392.667z"/>
	<path fill-rule="evenodd" clip-rule="evenodd" fill="#FEFEFE" d="M1393.432,424.284c-5.334-2.74-12.637-8.705-17.11-2.369
		c-5.264,7.453-7.669,17.306-6.202,27.031c0.635,4.228,4.168,3.797,7.484,2.94c12.712-3.295,26.084-4.955,37.229-14.684
		C1408.864,429.944,1400.544,427.946,1393.432,424.284z"/>
	<path fill-rule="evenodd" clip-rule="evenodd" fill="#FEFEFE" d="M1107.373,371.71c-0.73,7.371-7.896,15.17-2.367,21.739
		c6.197,7.359,14.166-0.366,21.243-1.357c7.973-1.111,15.652-4.189,23.192-12.568c-10.326-5.259-18.857-9.364-27.163-13.9
		C1114.528,361.393,1108.368,361.63,1107.373,371.71z"/>
	<path fill-rule="evenodd" clip-rule="evenodd" fill="#FEFEFE" d="M725.539,478.537c-1.896,8.427-9.035,17.967-3.308,25.382
		c4.88,6.313,13.955,0.154,20.811-1.698c7.761-2.095,16.229-3.519,23.815-13.001c-10.729-5.246-19.649-9.851-28.789-13.979
		C733.271,473.071,727.057,471.778,725.539,478.537z"/>
	<path fill-rule="evenodd" clip-rule="evenodd" fill="#FEFEFE" d="M1160.995,475.404c-14.385-1.031-9.635,14.583-12.759,23.239
		c-1.828,4.951-1.997,8.756,4.973,9.263c7.816,0.565,39.207-13.191,37.182-16.125
		C1183.448,481.729,1171.396,476.151,1160.995,475.404z"/>
	<path fill-rule="evenodd" clip-rule="evenodd" fill="#FEFEFE" d="M1079.709,495.734c-2.351,8.472-7.652,17.819-1.54,25.449
		c5.256,6.576,13.161,0.253,19.431-1.682c7.717-2.39,16.196-3.599,23.646-10.976c-10.094-9.87-22.717-11.319-33.192-16.988
		C1083.651,489.152,1080.975,491.152,1079.709,495.734z"/>
	<path fill-rule="evenodd" clip-rule="evenodd" fill="#FEFEFE" d="M1355.451,496.243c-4.989-2.877-11.41-6.15-15.758-0.422
		c-5.928,7.803-6.457,17.895-7.389,27.379c-0.248,2.525,3.272,3.35,6.04,2.308c4.977-1.19,10.189-1.808,14.888-3.709
		c7.982-3.217,21.122-2.754,21.625-12.494C1375.256,501.444,1362.438,500.274,1355.451,496.243z"/>
	<path fill-rule="evenodd" clip-rule="evenodd" fill="#FEFEFE" d="M1012.892,503.786c-11.57-0.972-7.551,14.296-9.77,18.631
		c-4.088,9.932-1.922,12.626,5.126,13.109c10.927,0.738,37.448-10.347,34.932-14.666
		C1036.735,509.796,1023.567,504.685,1012.892,503.786z"/>
	<path fill-rule="evenodd" clip-rule="evenodd" fill="#FEFEFE" d="M1306.833,685.414c-13.334-2.407-8.36,13.598-12.508,19.971
		c-2.16,6.588-1.85,12.042,5.731,11.254c13.312-1.379,32.47-2.752,35.147-13.942
		C1337.505,693.114,1317.484,687.338,1306.833,685.414z"/>
	<path fill-rule="evenodd" clip-rule="evenodd" fill="#FEFEFE" d="M1364.126,646.557c-13.626-1.196-7.261,16.009-12.888,22.762
		c-0.877,8.334,4.213,10.155,9.522,8.601c11.852-3.472,30.98-2.713,32.379-14.545
		C1394.274,653.779,1374.732,647.489,1364.126,646.557z"/>
	<path fill-rule="evenodd" clip-rule="evenodd" fill="#FEFEFE" d="M1179.728,354.753c-3.92,23.073-4.351,23.613,17.494,16.835
		c8.233-2.557,17.526-3.665,25.424-13.762c-9.566-4.704-17.481-8.438-25.251-12.448
		C1186.832,339.928,1181.932,341.753,1179.728,354.753z"/>
	<path fill-rule="evenodd" clip-rule="evenodd" fill="#FEFEFE" d="M807.229,499.831c-10.604-5.517-15.439-3.578-17.591,9.457
		c-3.804,23.059-4.28,23.578,17.541,16.784c8.231-2.568,17.556-3.61,24.67-12.799c-3.442-2.28-5.395-3.833-7.566-4.961
		C818.646,505.389,812.86,502.761,807.229,499.831z"/>
	<path fill-rule="evenodd" clip-rule="evenodd" fill="#FEFEFE" d="M806.572,435.895c-1.742,8.571-7.268,16.903-3.996,25.958
		c1.975,5.461,7.501,4.34,11.554,2.856c10.646-3.884,22.276-5.417,33.13-13.575c-9.439-10.126-21.462-11.294-31.335-16.583
		C812.532,432.739,807.638,430.64,806.572,435.895z"/>
	<path fill-rule="evenodd" clip-rule="evenodd" fill="#FEFEFE" d="M859.95,518.293c0.038,7.417-8.501,15.841-1.649,21.285
		c5.489,4.365,14.252-0.639,21.314-2.938c7.142-2.325,14.803-3.639,21.423-11.083c-8.146-8.193-18.081-11.018-27.053-15.359
		C865.99,506.333,859.894,508.332,859.95,518.293z"/>
	<path fill-rule="evenodd" clip-rule="evenodd" fill="#FEFEFE" d="M932.569,518.958c-0.899,7.329-7.346,15.493-0.935,21.642
		c5.657,5.428,13.271-1.057,19.776-2.382c7.774-1.587,14.976-5.961,26.728-10.951c-13.368-6.643-22.586-10.923-31.519-15.744
		C937.841,506.79,933.755,509.222,932.569,518.958z"/>
	<path fill-rule="evenodd" clip-rule="evenodd" fill="#FEFEFE" d="M1240.047,716.051c-11.169,0.021-7.615,16.096-11.422,24.241
		c-1.473,7.571,3.767,8.482,7.931,7.221c12.155-3.673,31.2-1.705,33.044-15.545C1270.65,724.084,1250.555,716.025,1240.047,716.051z
		"/>
	<path fill-rule="evenodd" clip-rule="evenodd" fill="#FEFEFE" d="M1254.373,391.363c-9.312-5.208-14.943-1.485-15.906,8.421
		c-0.658,6.784-7.792,14.28-2.177,19.832c5.266,5.215,13.223-0.084,19.482-1.966c8.148-2.46,17.69-3.181,23.219-11.982
		C1272.398,397.79,1262.55,395.943,1254.373,391.363z"/>
	<path fill-rule="evenodd" clip-rule="evenodd" fill="#FEFEFE" d="M1175.163,407.108c-11.618-1.154-7.733,14.144-9.633,17.857
		c-4.345,10.317-2.626,15.045,4.497,13.52c12.637-2.705,31.718-2.142,34.002-14.788
		C1205.651,414.739,1185.793,408.161,1175.163,407.108z"/>
	<path fill-rule="evenodd" clip-rule="evenodd" fill="#FEFEFE" d="M1101.42,426.408c-11.545-0.255-8.474,15.495-11.543,24.312
		c-2.374,6.837,2.661,7.212,8.952,7.434c10.202-5.249,29.926-1.781,31.98-15.611C1132.024,434.393,1111.936,426.643,1101.42,426.408
		z"/>
	<path fill-rule="evenodd" clip-rule="evenodd" fill="#FEFEFE" d="M1297.494,453.921c-3.97,6.942-8.386,16.151-4.022,23.713
		c4.657,8.071,12.58,1.158,19.071,0.186c8.957-1.348,17.075-4.574,26.802-13.049c-9.847-4.401-17.221-7.926-24.771-10.989
		C1308.887,451.478,1301.747,446.495,1297.494,453.921z"/>
	<path fill-rule="evenodd" clip-rule="evenodd" fill="#FEFEFE" d="M1233.115,453.786c-14.364,4.365-8.468,18.359-13.012,26.901
		c-2.057,3.85,0.536,7.782,5.743,6.257c13.084-3.84,32.528-2.614,36.036-15.771C1264.049,463.063,1243.102,461.047,1233.115,453.786
		z"/>
	<path fill-rule="evenodd" clip-rule="evenodd" fill="#FEFEFE" d="M1380.432,563.572c-8.742-4.989-18.331-8.486-26.398-12.106
		c-6.887-0.658-10.45,2.926-10.547,7.367c-0.172,8.094-6.038,15.484-2.7,23.719c0.344,0.85,3.47,1.287,4.984,0.833
		c10.877-3.238,21.807-6.405,32.43-10.371C1382.21,571.519,1387.137,567.401,1380.432,563.572z"/>
	<path fill-rule="evenodd" clip-rule="evenodd" fill="#FEFEFE" d="M367.5,543.034c-5.318,2.152-15.616-0.11-16.822,9.5
		c-1.035,8.229,7.406,12.171,14.171,11.828c7.981-0.416,13.718-6.993,14.83-14.84C380.818,541.513,373.634,543.652,367.5,543.034z"
		/>
</g>
</svg>
