<?xml version="1.0" encoding="utf-8"?>
<!-- Generator: Adobe Illustrator 16.0.0, SVG Export Plug-In . SVG Version: 6.00 Build 0)  -->
<!DOCTYPE svg PUBLIC "-//W3C//DTD SVG 1.1//EN" "http://www.w3.org/Graphics/SVG/1.1/DTD/svg11.dtd">
<svg version="1.1" id="Layer_1" xmlns="http://www.w3.org/2000/svg" xmlns:xlink="http://www.w3.org/1999/xlink" x="0px" y="0px"
	 width="1280px" height="700px" viewBox="0 0 1280 700" enable-background="new 0 0 1280 700" xml:space="preserve">
<rect x="-19" y="-52" display="none" width="1299" height="800"/>
<g>
	<g>
		<path d="M120.343,217.691c-1.928,32.272-17.251,41.552-45.967,25.342c-30.948-18.228-45.165-46.885-42.652-80.901
			c1.286-17.779,6.306-29.516,15.064-36.437c8.756-6.854,20.524-8.667,35.301-4.294c28.715,8.07,42.154,28.7,40.314,61.106
			c-9.2-3.123-18.4-6.449-27.601-9.98c-0.243-17.303-4.545-27.475-12.91-30.312c-9.341-3.233-15.692-0.874-19.053,6.83
			c-1.994,4.277-3.426,12.984-4.292,25.991c-0.866,13.002-0.629,22.267,0.713,28.099c2.12,9.22,7.225,16.224,15.312,20.578
			c6.69,3.583,11.395,3.176,14.118-1.169c1.756-2.767,2.898-8.33,3.424-16.753C101.524,210.03,110.933,213.995,120.343,217.691z"/>
		<path d="M271.501,85.127c-23.839-2.709-36.454,11.168-37.846,40.249c-1.247,26.004-2.493,51.082-3.739,75.244
			c-9.41-1.599-18.82-3.385-28.229-5.363c2.435-46.51,4.869-96.414,7.304-149.838c9.41,1.008,18.82,2.037,28.229,3.074
			c-0.375,8.354-0.75,16.625-1.125,24.81c4.121-10.411,8.788-17.624,14.001-21.418c5.214-3.793,12.907-5.159,23.084-4.036
			C272.621,60.461,272.061,72.887,271.501,85.127z"/>
		<path d="M435.786,195.034c-1.043,19.192-6.386,35.39-16.026,49.094c-10.847,15.327-24.772,23.723-41.779,24.634
			c-17.008,0.868-30.057-6.196-39.143-21.366c-8.344-13.551-11.992-30.556-10.949-51.075c1.041-20.536,6.451-38.257,16.237-52.578
			c10.703-16.121,24.56-23.758,41.568-23.02c17.006,0.689,30.126,9.25,39.354,24.829
			C433.247,159.447,436.828,175.825,435.786,195.034z M407.139,196.522c1.732-32.724-5.836-50.021-22.703-50.37
			c-8.226-0.189-14.758,4.187-19.603,13.165c-4.844,8.956-7.68,21.725-8.507,37.85c-0.828,16.118,0.727,28.272,4.666,36.715
			c3.938,8.435,10.018,12.437,18.244,12.106C396.103,245.139,405.406,229.068,407.139,196.522z"/>
		<path d="M558.896,259.251c-1.928,29.835-17.251,48.528-45.967,55.613c-30.947,7.378-45.165-9.34-42.652-51.637
			c1.285-21.693,6.306-39.319,15.064-51.962c8.755-12.691,20.525-19.785,35.301-21.734c28.715-3.733,42.155,8.591,40.314,37.474
			c-9.201,1.922-18.401,3.779-27.602,5.556c-0.243-16.146-4.545-23.708-12.909-22.395c-9.34,1.457-15.692,7.193-19.053,17.317
			c-1.994,5.663-3.424,15.813-4.292,30.143c-0.866,14.321-0.628,23.859,0.713,28.86c2.121,7.942,7.227,10.946,15.312,9.097
			c6.691-1.539,11.394-5.38,14.118-11.462c1.756-3.895,2.898-9.985,3.424-18.356C540.077,263.676,549.486,261.498,558.896,259.251z"
			/>
		<path d="M722.714,156.885c-1.042,13.302-6.387,25.72-16.027,37.46c-10.848,13.17-24.77,22.251-41.779,26.55
			c-17.01,4.309-30.054,1.937-39.143-7.658c-8.343-8.473-11.991-20.742-10.949-36.273c1.042-15.523,6.454-29.4,16.237-40.954
			c10.705-12.96,24.559-19.742,41.57-21.416c17.005-1.662,30.122,2.164,39.352,10.952
			C720.174,133.429,723.756,143.585,722.714,156.885z M694.065,162.203c1.733-22.917-5.835-32.802-22.699-30.738
			c-8.229,1.076-14.76,4.978-19.604,11.97c-4.844,6.982-7.681,16.468-8.507,28.312c-0.828,11.853,0.726,20.635,4.665,26.127
			c3.939,5.506,10.019,7.232,18.244,5.301C683.03,199.185,692.333,185.224,694.065,162.203z"/>
		<path d="M859.466,244.69c-9.41,1.357-18.819,2.903-28.229,4.615c0.331-4.598,0.661-9.146,0.992-13.642
			c-9.862,12.486-19.877,20.065-30.053,22.24c-16.312,3.536-28.31,0.796-35.996-8.464c-6.575-7.515-9.356-18.188-8.344-31.719
			c1.246-16.629,6.399-30.072,15.462-40.438c9.058-10.358,20.628-16.479,34.707-18.757c8.365-1.347,15.026-1.219,19.992,0.292
			c1.614,0.436,4.908,2.135,9.885,5.155c1.3-15.296,2.601-29.756,3.9-43.35c9.41-0.944,18.82-1.792,28.23-2.524
			C866.497,153.698,862.981,196.066,859.466,244.69z M835.263,201.159c1.771-22.461-5.148-31.55-20.76-29.064
			c-8.782,1.486-15.769,6.228-20.952,14.457c-4.402,6.998-6.965,15.258-7.695,24.834c-0.671,8.815,0.653,15.85,3.979,20.935
			c3.944,5.997,10.102,8.12,18.464,6.388c7.527-1.544,13.854-6.317,18.983-14.171C831.949,217.292,834.609,209.481,835.263,201.159z
			"/>
		<path d="M984.046,80.538c-10.804-0.5-21.606-0.832-32.41-1.025c0.633-5.069,1.267-9.901,1.899-14.494
			c10.804,0.248,21.606,0.582,32.41,1.028C985.312,70.644,984.679,75.474,984.046,80.538z M973.308,164.224
			c-9.41-0.469-18.819-0.686-28.229-0.673c2.435-27.797,4.87-52.102,7.305-72.884c9.409,0.153,18.819,0.438,28.229,0.875
			C978.177,112.285,975.742,136.505,973.308,164.224z"/>
		<path d="M1039.672,222.066c10.338,3.853,20.677,8.142,31.015,12.903c3.516-46.347,7.032-86.367,10.548-120.772
			c-10.339-3.432-20.678-6.482-31.017-9.209C1046.702,137.5,1043.188,176.362,1039.672,222.066z"/>
		<path d="M1229.219,263.51c-0.106,1.461-0.207,2.819-0.301,4.074c-0.092,1.261-0.246,2.365-0.465,3.313
			c-22.513-17.464-45.024-32.098-67.537-44.26c-0.81,10.301,0.188,18.592,2.987,24.771c2.801,6.188,7.756,11.386,14.865,15.835
			c9.896,6.232,16.017,4.769,18.372-5.062c9.48,6.421,18.96,13.321,28.439,20.728c-3.878,20.779-20.175,18.627-48.891,0.368
			c-15.892-9.968-27.586-20.752-35.083-33.507c-7.5-12.709-10.629-26.715-9.391-42.021c0.604-7.462,2.294-13.513,5.068-18.257
			c2.779-4.735,6.461-8.158,11.049-10.274c4.59-2.11,10.075-2.832,16.459-2.058c6.381,0.782,13.475,3.124,21.283,7.286
			c7.529,4.017,14.099,8.897,19.715,14.605c5.612,5.708,10.248,12.099,13.898,19.073c3.651,6.975,6.295,14.41,7.927,22.16
			C1229.25,248.04,1229.785,255.826,1229.219,263.51z M1200.421,233.424c1.179-15.453-4.645-27.262-17.469-34.374
			c-12.688-6.932-19.618-2.76-20.795,11.9C1174.912,217.646,1187.666,225.115,1200.421,233.424z"/>
		<path d="M183.653,534.524c-0.107,1.198-0.207,2.312-0.299,3.338c-0.093,1.026-0.249,1.949-0.464,2.771
			c-22.513-5.896-45.027-13.622-67.54-23.531c-0.81,9.63,0.188,16.954,2.988,22.06c2.8,5.103,7.756,8.924,14.865,11.386
			c9.896,3.376,16.02,0.693,18.374-7.837c9.479,3.075,18.958,5.812,28.438,8.237c-3.878,16.764-20.173,21.834-48.89,12.927
			c-15.891-5.123-27.586-13.459-35.084-24.813c-7.498-11.349-10.629-25.108-9.392-40.543c0.604-7.542,2.294-13.732,5.072-18.5
			c2.777-4.771,6.458-8.137,11.047-10.148c4.587-2.015,10.073-2.578,16.457-1.841c6.381,0.74,13.476,2.854,21.285,6.182
			c7.527,3.205,14.098,6.869,19.714,11.104c5.612,4.234,10.247,8.909,13.899,14.081c3.651,5.17,6.293,10.737,7.926,16.695
			C183.685,522.054,184.218,528.204,183.653,534.524z M154.857,517.605c1.178-13.825-4.646-23.317-17.469-28.675
			c-12.688-5.442-19.62-1.188-20.797,13.23C129.347,508.017,142.102,513.144,154.857,517.605z"/>
		<path d="M438.394,539.051c-9.41,1.414-18.82,2.715-28.229,3.881c1.461-16.635,2.921-34.37,4.382-53.163
			c1.295-16.737-4.33-24.579-16.876-22.774c-14.779,1.953-22.916,12.961-24.415,31.9c-1.359,17.083-2.718,33.154-4.077,48.191
			c-9.41,0.725-18.819,1.281-28.229,1.646c2.435-26.576,4.87-56.597,7.304-89.966c9.409-0.558,18.819-1.351,28.228-2.354
			c-0.326,4.483-0.652,8.909-0.978,13.277c4.32-6.019,8.01-10.156,11.064-12.248c5.539-3.982,13.608-6.709,24.203-8.372
			c11.987-1.896,20.731-0.104,26.229,5.577c5,4.966,7.119,12.572,6.358,22.608C441.705,499.105,440.049,519.728,438.394,539.051z"/>
		<path d="M640.428,624.904c-0.292,4.298-1.392,8.145-3.297,11.488c-1.908,3.346-4.445,6.163-7.612,8.433
			c-3.169,2.27-6.853,3.866-11.051,4.816c-4.202,0.948-8.74,1.233-13.62,0.916c-2.649-0.173-5.451-0.617-8.41-1.305
			c-2.96-0.692-5.796-1.554-8.517-2.568c-2.723-1.02-5.222-2.131-7.503-3.333c-2.281-1.203-4.07-2.424-5.368-3.678
			c4.591-4.97,9.182-10.141,13.773-15.5c3.38,3.152,7.232,4.803,11.553,4.845c3.206,0.03,5.995-0.888,8.369-2.807
			c2.369-1.921,3.669-4.448,3.892-7.543c2.678-37.028,5.356-75.065,8.034-113.674c9.41-1.988,18.82-3.959,28.229-5.895
			C646.076,541.273,643.252,583.381,640.428,624.904z M652.334,478.551c-10.804,2.467-21.607,4.98-32.41,7.513
			c0.633-9.146,1.266-18.322,1.899-27.523c10.804-2.824,21.607-5.636,32.411-8.402C653.601,459.602,652.968,469.074,652.334,478.551
			z"/>
		<path d="M944.902,424.099c-1.041,19.002-6.389,35.475-16.029,48.99c-10.846,15.22-24.772,22.8-41.779,22.868
			c-17.009,0.121-30.056-7.164-39.142-21.387c-8.346-12.643-11.99-27.946-10.948-46.114c1.042-18.144,6.45-33.624,16.235-46.788
			c10.703-14.67,24.559-22.812,41.569-23.95c17.005-1.085,30.125,5.345,39.354,19.273
			C942.361,389.455,945.943,405.12,944.902,424.099z M916.253,423.652c1.733-31.263-5.837-45.719-22.702-44.827
			c-8.227,0.494-14.76,4.839-19.602,12.954c-4.846,8.134-7.682,19.356-8.511,34.01c-0.826,14.666,0.729,26.154,4.668,34.269
			c3.938,8.122,10.017,12.159,18.243,11.991C905.216,471.881,914.519,455.182,916.253,423.652z"/>
		<path d="M1192.171,490.468c-18.408,37.448-36.815,83.05-55.224,138.569c-2.344,7.185-6.694,12.737-13.06,16.649
			c-6.362,3.902-13.446,5.598-21.252,4.806c-6.691-0.674-12.852-3.664-18.484-9.062c-6.028-5.85-10.169-13.227-12.416-21.973
			c6.186-6.17,12.371-12.153,18.557-17.921c2.179,9.912,6.337,15.331,12.473,16.216c4.183,0.613,7.363-2.68,9.546-9.679
			c1.672-5.247,3.345-10.419,5.017-15.516c-11.506-49.713-23.012-99.154-34.518-146.092c10.664,3.064,21.328,6.474,31.992,10.24
			c6.597,29.573,13.194,59.837,19.791,90.22c9.225-25.928,18.45-49.529,27.675-71.055
			C1172.235,480.406,1182.203,485.269,1192.171,490.468z"/>
	</g>
</g>
</svg>
